<svg width="179" height="36" viewBox="0 0 179 36" fill="none" xmlns="http://www.w3.org/2000/svg">
<path d="M14.5081 25V16.0628C14.5081 14.6924 14.518 13.322 14.5379 11.9517C14.5776 10.5813 14.6173 9.21092 14.657 7.84054H14.5975C14.379 8.77399 14.1804 9.6975 14.0016 10.6111C13.8229 11.5247 13.6144 12.4482 13.376 13.3816L11.1417 22.0805H8.3414L6.1071 13.3816C5.86877 12.4482 5.66024 11.5247 5.48149 10.6111C5.30275 9.6975 5.10414 8.77399 4.88568 7.84054H4.8261C4.86582 9.21092 4.89561 10.5813 4.91547 11.9517C4.95519 13.322 4.97505 14.6924 4.97505 16.0628V25H1.99598V4.14649H6.46459L8.84784 13.3816C9.02659 14.0767 9.17554 14.7818 9.2947 15.4968C9.41387 16.2117 9.55289 16.9267 9.71177 17.6417H9.77136C9.91038 16.9267 10.0295 16.2117 10.1288 15.4968C10.248 14.7818 10.397 14.0767 10.5757 13.3816L13.0185 4.14649H17.4872V25H14.5081ZM21.4433 25V10.1046H24.2734V25H21.4433ZM24.2734 7.42347H21.4433V4.74231H24.2734V7.42347ZM31.6973 27.6812C31.6973 28.3564 31.6179 28.982 31.459 29.558C31.3001 30.1339 31.0419 30.6304 30.6844 31.0475C30.3468 31.4844 29.9 31.8221 29.3439 32.0604C28.7878 32.3186 28.1125 32.4477 27.3181 32.4477H26.484V29.9155H27.3181C27.9139 29.9155 28.321 29.6871 28.5395 29.2303C28.758 28.7735 28.8672 28.2571 28.8672 27.6812V12.6369H26.484V10.1046H31.6973V27.6812ZM31.6973 6.82766H28.8672V4.14649H31.6973V6.82766ZM43.1242 25V15.318C43.1242 14.5633 42.9256 13.9079 42.5283 13.3518C42.1311 12.7759 41.5353 12.4879 40.7409 12.4879C39.9465 12.4879 39.3507 12.7759 38.9535 13.3518C38.5563 13.9079 38.3576 14.5633 38.3576 15.318V25H35.5275V10.1046H36.8681L37.5533 11.5644C37.9108 11.0282 38.3676 10.6012 38.9237 10.2834C39.4798 9.96562 40.165 9.80673 40.9792 9.80673C41.7538 9.80673 42.439 9.95569 43.0348 10.2536C43.6505 10.5515 44.1768 10.9586 44.6137 11.475C45.0506 11.9715 45.3783 12.5574 45.5968 13.2327C45.8351 13.8881 45.9543 14.5832 45.9543 15.318V25H43.1242Z" fill="#2473DB"/>
<path d="M61.2721 8.22782C61.2721 9.14141 61.0635 9.8961 60.6465 10.4919C60.2492 11.0679 59.7229 11.5147 59.0676 11.8325C59.7428 12.7858 60.0804 13.898 60.0804 15.1691C60.0804 15.884 59.9613 16.5692 59.7229 17.2246C59.5045 17.88 59.1669 18.456 58.7101 18.9525C58.2731 19.4291 57.717 19.8164 57.0418 20.1143C56.3665 20.3924 55.592 20.5314 54.7181 20.5314C53.9634 20.5314 53.3179 20.4321 52.7817 20.2335C52.5632 20.3924 52.4242 20.5711 52.3646 20.7697C52.3249 20.9485 52.3051 21.0875 52.3051 21.1868C52.3051 21.7032 52.4341 22.0606 52.6923 22.2593C52.9505 22.4579 53.2286 22.577 53.5265 22.6167C53.9038 22.6565 54.3408 22.7061 54.8373 22.7657C55.3338 22.8054 55.8502 22.8849 56.3864 23.004C56.9226 23.1033 57.439 23.2523 57.9355 23.4509C58.4519 23.6495 58.9087 23.9275 59.3059 24.285C59.7229 24.6227 60.0506 25.0497 60.289 25.566C60.5472 26.1023 60.6762 26.7378 60.6762 27.4726C60.6762 28.1876 60.5472 28.8629 60.289 29.4984C60.0506 30.1339 59.6932 30.69 59.2165 31.1667C58.7399 31.6433 58.1341 32.0207 57.3993 32.2987C56.6843 32.5966 55.8502 32.7456 54.8968 32.7456C53.9435 32.7456 53.0995 32.5966 52.3646 32.2987C51.6298 32.0207 51.0141 31.6433 50.5176 31.1667C50.041 30.69 49.6735 30.1439 49.4154 29.5282C49.177 28.9324 49.0579 28.3167 49.0579 27.6812C49.0579 26.3505 49.6537 25.1291 50.8453 24.0169C50.5275 23.6991 50.2694 23.3119 50.0708 22.8551C49.8721 22.3983 49.7728 21.8521 49.7728 21.2166C49.7728 20.8988 49.8225 20.5215 49.9218 20.0845C50.0211 19.6277 50.2396 19.2007 50.5772 18.8035C50.18 18.307 49.8721 17.7509 49.6537 17.1352C49.4551 16.5196 49.3558 15.8642 49.3558 15.1691C49.3558 14.4541 49.465 13.7689 49.6835 13.1135C49.9218 12.4581 50.2594 11.8921 50.6964 11.4154C51.1531 10.9189 51.7192 10.5316 52.3944 10.2536C53.0697 9.95569 53.8442 9.80673 54.7181 9.80673C55.2941 9.80673 55.8104 9.87624 56.2672 10.0153C56.7439 10.1344 57.1808 10.3032 57.578 10.5217C57.9156 10.3628 58.1937 10.1146 58.4122 9.77694C58.6306 9.41945 58.7399 8.90308 58.7399 8.22782H61.2721ZM53.1988 25.149C52.8612 25.5064 52.5533 25.9037 52.2753 26.3406C52.0171 26.7775 51.888 27.2244 51.888 27.6812C51.888 28.2968 52.1362 28.843 52.6328 29.3197C53.1491 29.8162 53.8939 30.0644 54.8671 30.0644C55.8601 30.0644 56.6049 29.8062 57.1014 29.2899C57.5979 28.7934 57.8461 28.2075 57.8461 27.5322C57.8461 27.0754 57.727 26.708 57.4886 26.43C57.2702 26.1718 56.9524 25.9533 56.5353 25.7746C56.1183 25.6157 55.6317 25.4866 55.0756 25.3873C54.5195 25.3078 53.9138 25.2284 53.2584 25.149H53.1988ZM54.7181 17.8502C55.5522 17.8502 56.1779 17.592 56.5949 17.0757C57.0319 16.5394 57.2503 15.9039 57.2503 15.1691C57.2503 14.4342 57.0319 13.8086 56.5949 13.2922C56.1779 12.756 55.5522 12.4879 54.7181 12.4879C53.884 12.4879 53.2484 12.756 52.8115 13.2922C52.3944 13.8086 52.1859 14.4342 52.1859 15.1691C52.1859 15.9039 52.3944 16.5394 52.8115 17.0757C53.2484 17.592 53.884 17.8502 54.7181 17.8502ZM66.3716 18.6248V19.6377C66.3716 20.4519 66.5702 21.157 66.9674 21.7528C67.3845 22.3288 68.0002 22.6167 68.8145 22.6167C69.5692 22.6167 70.1451 22.3883 70.5423 21.9316C70.9395 21.4549 71.1381 20.8889 71.1381 20.2335H73.9683C73.9683 20.9286 73.8491 21.584 73.6108 22.1997C73.3923 22.7955 73.0646 23.3317 72.6277 23.8084C72.1908 24.2652 71.6545 24.6326 71.019 24.9106C70.3834 25.1688 69.6486 25.2979 68.8145 25.2979C67.9406 25.2979 67.1661 25.149 66.4908 24.851C65.8354 24.5333 65.2892 24.1162 64.8523 23.5998C64.4154 23.0835 64.0877 22.4876 63.8692 21.8124C63.6507 21.1173 63.5415 20.3924 63.5415 19.6377V15.467C63.5415 14.7123 63.6507 13.9973 63.8692 13.322C64.0877 12.6269 64.4154 12.0212 64.8523 11.5048C65.2892 10.9884 65.8354 10.5813 66.4908 10.2834C67.1661 9.96562 67.9406 9.80673 68.8145 9.80673C69.6486 9.80673 70.3834 9.94575 71.019 10.2238C71.6545 10.482 72.1908 10.8494 72.6277 11.3261C73.0646 11.7828 73.3923 12.3191 73.6108 12.9348C73.8491 13.5504 73.9683 14.1959 73.9683 14.8712V18.6248H66.3716ZM71.1381 14.8712C71.1381 14.2158 70.9395 13.6597 70.5423 13.2029C70.1451 12.7262 69.5692 12.4879 68.8145 12.4879C68.3974 12.4879 68.0399 12.5673 67.742 12.7262C67.4441 12.8851 67.1859 13.1036 66.9674 13.3816C66.7688 13.6398 66.6199 13.9576 66.5206 14.3349C66.4213 14.6924 66.3716 15.0698 66.3716 15.467V16.0628H71.1381V14.8712ZM86.3181 25H76.4872V22.6167L83.0412 12.7858H76.4872V10.1046H86.3181V12.4879L79.7642 22.3188H86.3181V25ZM99.6965 19.7866C99.6965 20.5215 99.5773 21.2265 99.339 21.9018C99.1206 22.5572 98.7829 23.143 98.3261 23.6594C97.8892 24.1559 97.3331 24.5531 96.6579 24.851C95.9826 25.149 95.208 25.2979 94.3342 25.2979C93.4603 25.2979 92.6858 25.149 92.0105 24.851C91.3352 24.5531 90.7692 24.1559 90.3124 23.6594C89.8755 23.143 89.5379 22.5572 89.2995 21.9018C89.0811 21.2265 88.9718 20.5215 88.9718 19.7866V15.318C88.9718 14.5832 89.0811 13.8881 89.2995 13.2327C89.5379 12.5574 89.8755 11.9715 90.3124 11.475C90.7692 10.9586 91.3352 10.5515 92.0105 10.2536C92.6858 9.95569 93.4603 9.80673 94.3342 9.80673C95.208 9.80673 95.9826 9.95569 96.6579 10.2536C97.3331 10.5515 97.8892 10.9586 98.3261 11.475C98.7829 11.9715 99.1206 12.5574 99.339 13.2327C99.5773 13.8881 99.6965 14.5832 99.6965 15.318V19.7866ZM96.8664 15.318C96.8664 14.5633 96.6479 13.9079 96.211 13.3518C95.7939 12.7759 95.1683 12.4879 94.3342 12.4879C93.5 12.4879 92.8645 12.7759 92.4276 13.3518C92.0105 13.9079 91.802 14.5633 91.802 15.318V19.7866C91.802 20.5413 92.0105 21.2066 92.4276 21.7826C92.8645 22.3387 93.5 22.6167 94.3342 22.6167C95.1683 22.6167 95.7939 22.3387 96.211 21.7826C96.6479 21.2066 96.8664 20.5413 96.8664 19.7866V15.318ZM110.875 25V15.318C110.875 14.5633 110.676 13.9079 110.279 13.3518C109.882 12.7759 109.286 12.4879 108.492 12.4879C107.697 12.4879 107.101 12.7759 106.704 13.3518C106.307 13.9079 106.108 14.5633 106.108 15.318V25H103.278V10.1046H104.619L105.304 11.5644C105.661 11.0282 106.118 10.6012 106.674 10.2834C107.23 9.96562 107.916 9.80673 108.73 9.80673C109.504 9.80673 110.19 9.95569 110.785 10.2536C111.401 10.5515 111.927 10.9586 112.364 11.475C112.801 11.9715 113.129 12.5574 113.347 13.2327C113.586 13.8881 113.705 14.5832 113.705 15.318V25H110.875ZM126.55 25L125.865 23.57C125.488 24.1063 125.011 24.5333 124.435 24.851C123.859 25.149 123.154 25.2979 122.32 25.2979C121.525 25.2979 120.81 25.1589 120.175 24.8808C119.539 24.5829 118.993 24.1957 118.536 23.719C118.099 23.2225 117.762 22.6465 117.523 21.9911C117.285 21.3357 117.166 20.6506 117.166 19.9356V15.1691C117.166 14.4541 117.285 13.7788 117.523 13.1433C117.762 12.4879 118.099 11.9119 118.536 11.4154C118.993 10.9189 119.539 10.5316 120.175 10.2536C120.81 9.95569 121.525 9.80673 122.32 9.80673C122.955 9.80673 123.521 9.90603 124.018 10.1046C124.514 10.3032 124.941 10.5714 125.299 10.909C125.239 10.2735 125.18 9.64785 125.12 9.03217C125.08 8.39664 125.061 7.7611 125.061 7.12557V3.10382L127.891 2.65696V25H126.55ZM125.061 15.318C125.061 14.5633 124.842 13.9079 124.405 13.3518C123.988 12.7759 123.362 12.4879 122.528 12.4879C121.694 12.4879 121.059 12.7759 120.622 13.3518C120.205 13.9079 119.996 14.5633 119.996 15.318V19.7866C119.996 20.5413 120.205 21.2066 120.622 21.7826C121.059 22.3387 121.694 22.6167 122.528 22.6167C123.362 22.6167 123.988 22.3387 124.405 21.7826C124.842 21.2066 125.061 20.5413 125.061 19.7866V15.318ZM139.302 25V15.318C139.302 14.5633 139.103 13.9079 138.706 13.3518C138.309 12.7759 137.713 12.4879 136.918 12.4879C136.124 12.4879 135.528 12.7759 135.131 13.3518C134.734 13.9079 134.535 14.5633 134.535 15.318V25H131.705V3.10382L134.535 2.65696V7.12557C134.535 7.7611 134.505 8.39664 134.446 9.03217C134.406 9.64785 134.346 10.2735 134.267 10.909C134.624 10.5714 135.042 10.3032 135.518 10.1046C135.995 9.90603 136.541 9.80673 137.157 9.80673C137.931 9.80673 138.616 9.95569 139.212 10.2536C139.828 10.5515 140.354 10.9586 140.791 11.475C141.228 11.9715 141.556 12.5574 141.774 13.2327C142.013 13.8881 142.132 14.5832 142.132 15.318V25H139.302ZM148.423 18.6248V19.6377C148.423 20.4519 148.622 21.157 149.019 21.7528C149.436 22.3288 150.052 22.6167 150.866 22.6167C151.62 22.6167 152.196 22.3883 152.594 21.9316C152.991 21.4549 153.189 20.8889 153.189 20.2335H156.02C156.02 20.9286 155.9 21.584 155.662 22.1997C155.444 22.7955 155.116 23.3317 154.679 23.8084C154.242 24.2652 153.706 24.6326 153.07 24.9106C152.435 25.1688 151.7 25.2979 150.866 25.2979C149.992 25.2979 149.217 25.149 148.542 24.851C147.887 24.5333 147.341 24.1162 146.904 23.5998C146.467 23.0835 146.139 22.4876 145.921 21.8124C145.702 21.1173 145.593 20.3924 145.593 19.6377V15.467C145.593 14.7123 145.702 13.9973 145.921 13.322C146.139 12.6269 146.467 12.0212 146.904 11.5048C147.341 10.9884 147.887 10.5813 148.542 10.2834C149.217 9.96562 149.992 9.80673 150.866 9.80673C151.7 9.80673 152.435 9.94575 153.07 10.2238C153.706 10.482 154.242 10.8494 154.679 11.3261C155.116 11.7828 155.444 12.3191 155.662 12.9348C155.9 13.5504 156.02 14.1959 156.02 14.8712V18.6248H148.423ZM153.189 14.8712C153.189 14.2158 152.991 13.6597 152.594 13.2029C152.196 12.7262 151.62 12.4879 150.866 12.4879C150.449 12.4879 150.091 12.5673 149.793 12.7262C149.495 12.8851 149.237 13.1036 149.019 13.3816C148.82 13.6398 148.671 13.9576 148.572 14.3349C148.473 14.6924 148.423 15.0698 148.423 15.467V16.0628H153.189V14.8712ZM159.492 25V10.1046H162.322V25H159.492ZM162.322 7.42347H159.492V4.74231H162.322V7.42347ZM175.287 25L174.602 23.57C174.224 24.1063 173.748 24.5333 173.172 24.851C172.596 25.149 171.891 25.2979 171.057 25.2979C170.262 25.2979 169.547 25.1589 168.912 24.8808C168.276 24.5829 167.73 24.1957 167.273 23.719C166.836 23.2225 166.499 22.6465 166.26 21.9911C166.022 21.3357 165.903 20.6506 165.903 19.9356V15.1691C165.903 14.4541 166.022 13.7788 166.26 13.1433C166.499 12.4879 166.836 11.9119 167.273 11.4154C167.73 10.9189 168.276 10.5316 168.912 10.2536C169.547 9.95569 170.262 9.80673 171.057 9.80673C171.692 9.80673 172.258 9.90603 172.755 10.1046C173.251 10.3032 173.678 10.5714 174.036 10.909C173.976 10.2735 173.917 9.64785 173.857 9.03217C173.817 8.39664 173.797 7.7611 173.797 7.12557V3.10382L176.628 2.65696V25H175.287ZM173.797 15.318C173.797 14.5633 173.579 13.9079 173.142 13.3518C172.725 12.7759 172.099 12.4879 171.265 12.4879C170.431 12.4879 169.796 12.7759 169.359 13.3518C168.942 13.9079 168.733 14.5633 168.733 15.318V19.7866C168.733 20.5413 168.942 21.2066 169.359 21.7826C169.796 22.3387 170.431 22.6167 171.265 22.6167C172.099 22.6167 172.725 22.3387 173.142 21.7826C173.579 21.2066 173.797 20.5413 173.797 19.7866V15.318Z" fill="url(#paint0_linear_267_546)"/>
<defs>
<linearGradient id="paint0_linear_267_546" x1="179" y1="36" x2="165.082" y2="-33.2009" gradientUnits="userSpaceOnUse">
<stop stop-color="#2473DB"/>
<stop offset="1" stop-color="#76E1B1"/>
</linearGradient>
</defs>
</svg>
