<svg width="106" height="37" viewBox="0 0 106 37" fill="none" xmlns="http://www.w3.org/2000/svg">
<path d="M14.5081 25.5797V16.6425C14.5081 15.2721 14.518 13.9017 14.5379 12.5314C14.5776 11.161 14.6173 9.79063 14.657 8.42026H14.5975C14.379 9.3537 14.1804 10.2772 14.0016 11.1908C13.8229 12.1044 13.6144 13.0279 13.376 13.9613L11.1417 22.6602H8.3414L6.1071 13.9613C5.86877 13.0279 5.66024 12.1044 5.48149 11.1908C5.30275 10.2772 5.10414 9.3537 4.88568 8.42026H4.8261C4.86582 9.79063 4.89561 11.161 4.91547 12.5314C4.95519 13.9017 4.97505 15.2721 4.97505 16.6425V25.5797H1.99598V4.72621H6.46459L8.84784 13.9613C9.02659 14.6564 9.17554 15.3615 9.2947 16.0765C9.41387 16.7914 9.55289 17.5064 9.71177 18.2214H9.77136C9.91038 17.5064 10.0295 16.7914 10.1288 16.0765C10.248 15.3615 10.397 14.6564 10.5757 13.9613L13.0185 4.72621H17.4872V25.5797H14.5081ZM21.8008 33.0274V30.6441H21.9497C22.3668 30.6441 22.7143 30.5846 22.9924 30.4654C23.2704 30.3462 23.4889 30.1873 23.6478 29.9887C23.8265 29.7901 23.9556 29.5518 24.0351 29.2738C24.1344 29.0156 24.2237 28.7276 24.3032 28.4098L24.6607 26.9203L20.0133 10.6844H22.9924L24.9586 18.5193L25.9715 23.8221H26.0906L27.0737 18.5193L28.9505 10.6844H31.9296L26.895 29.1546C26.7957 29.5518 26.6566 29.9788 26.4779 30.4356C26.2992 30.8924 26.041 31.3095 25.7033 31.6868C25.3856 32.084 24.9586 32.4018 24.4223 32.6401C23.906 32.8983 23.2506 33.0274 22.4562 33.0274H21.8008Z" fill="#2473DB"/>
<path d="M41.9151 25.5797V15.8977C41.9151 15.143 41.7165 14.4876 41.3193 13.9315C40.9221 13.3556 40.3262 13.0676 39.5318 13.0676C38.7374 13.0676 38.1416 13.3556 37.7444 13.9315C37.3472 14.4876 37.1486 15.143 37.1486 15.8977V25.5797H34.3184V3.68353L37.1486 3.23667V7.70528C37.1486 8.34081 37.1188 8.97635 37.0592 9.61189C37.0195 10.2276 36.9599 10.8532 36.8804 11.4887C37.2379 11.1511 37.655 10.883 38.1317 10.6844C38.6083 10.4857 39.1545 10.3864 39.7701 10.3864C40.5447 10.3864 41.2299 10.5354 41.8257 10.8333C42.4414 11.1312 42.9677 11.5384 43.4046 12.0547C43.8415 12.5512 44.1692 13.1371 44.3877 13.8124C44.626 14.4678 44.7452 15.1629 44.7452 15.8977V25.5797H41.9151ZM51.0364 19.2045V20.2174C51.0364 21.0317 51.235 21.7367 51.6322 22.3325C52.0493 22.9085 52.665 23.1965 53.4792 23.1965C54.2339 23.1965 54.8099 22.9681 55.2071 22.5113C55.6043 22.0346 55.8029 21.4686 55.8029 20.8132H58.633C58.633 21.5083 58.5139 22.1637 58.2755 22.7794C58.0571 23.3752 57.7294 23.9114 57.2924 24.3881C56.8555 24.8449 56.3193 25.2123 55.6837 25.4903C55.0482 25.7485 54.3134 25.8776 53.4792 25.8776C52.6054 25.8776 51.8308 25.7287 51.1556 25.4308C50.5002 25.113 49.954 24.6959 49.5171 24.1795C49.0801 23.6632 48.7524 23.0674 48.534 22.3921C48.3155 21.697 48.2063 20.9721 48.2063 20.2174V16.0467C48.2063 15.292 48.3155 14.577 48.534 13.9017C48.7524 13.2066 49.0801 12.6009 49.5171 12.0845C49.954 11.5681 50.5002 11.161 51.1556 10.8631C51.8308 10.5453 52.6054 10.3864 53.4792 10.3864C54.3134 10.3864 55.0482 10.5255 55.6837 10.8035C56.3193 11.0617 56.8555 11.4291 57.2924 11.9058C57.7294 12.3626 58.0571 12.8988 58.2755 13.5145C58.5139 14.1301 58.633 14.7756 58.633 15.4509V19.2045H51.0364ZM55.8029 15.4509C55.8029 14.7955 55.6043 14.2394 55.2071 13.7826C54.8099 13.3059 54.2339 13.0676 53.4792 13.0676C53.0622 13.0676 52.7047 13.1471 52.4068 13.3059C52.1089 13.4648 51.8507 13.6833 51.6322 13.9613C51.4336 14.2195 51.2846 14.5373 51.1853 14.9146C51.086 15.2721 51.0364 15.6495 51.0364 16.0467V16.6425H55.8029V15.4509ZM70.5956 25.5797L69.8211 23.971C69.5033 24.547 69.0465 25.0137 68.4507 25.3712C67.8747 25.7088 67.13 25.8776 66.2164 25.8776C64.7864 25.8776 63.6445 25.4705 62.7905 24.6562C61.9365 23.8221 61.5095 22.7496 61.5095 21.4388C61.5095 20.7238 61.6386 20.1181 61.8967 19.6216C62.1549 19.1052 62.5124 18.6683 62.9692 18.3108C63.426 17.9533 63.9622 17.6752 64.5779 17.4766C65.1936 17.2582 65.8589 17.0993 66.5739 17L69.1061 16.6127V15.4509C69.1061 14.8153 68.9174 14.2592 68.5401 13.7826C68.1826 13.3059 67.6463 13.0676 66.9314 13.0676C66.2363 13.0676 65.7 13.3059 65.3227 13.7826C64.9652 14.2592 64.7864 14.8153 64.7864 15.4509H61.9563C61.9563 14.7756 62.0656 14.1301 62.284 13.5145C62.5025 12.8988 62.8203 12.3626 63.2373 11.9058C63.6544 11.4291 64.1708 11.0617 64.7864 10.8035C65.4021 10.5255 66.1171 10.3864 66.9314 10.3864C67.7457 10.3864 68.4606 10.5255 69.0763 10.8035C69.7118 11.0617 70.2381 11.4291 70.6552 11.9058C71.0723 12.3626 71.39 12.8988 71.6085 13.5145C71.827 14.1301 71.9362 14.7756 71.9362 15.4509V25.5797H70.5956ZM69.1061 19.2343L66.991 19.562C66.2363 19.6811 65.6007 19.8897 65.0843 20.1876C64.5878 20.4855 64.3396 20.9324 64.3396 21.5282C64.3396 22.0048 64.5183 22.402 64.8758 22.7198C65.2333 23.0376 65.7695 23.1965 66.4845 23.1965C67.2789 23.1965 67.9145 22.9978 68.3911 22.6006C68.8678 22.2034 69.1061 21.7069 69.1061 21.1111V19.2343ZM75.6496 25.5797V3.68353L78.4797 3.23667V25.5797H75.6496ZM88.2273 25.5797C87.3534 25.5797 86.5789 25.4407 85.9036 25.1626C85.2482 24.8846 84.7021 24.5072 84.2651 24.0306C83.8282 23.5539 83.5005 22.9879 83.2821 22.3325C83.0636 21.6771 82.9544 20.9721 82.9544 20.2174V13.3953H80.869V11.2802C81.9216 11.2802 82.6763 11.0518 83.1331 10.595C83.6097 10.1183 83.8481 9.3537 83.8481 8.30109V7.67549L85.7845 7.40737V10.8333H89.9254V13.3953H85.7845V20.2174C85.7845 20.5749 85.8242 20.9224 85.9036 21.2601C85.9831 21.5977 86.1122 21.8956 86.2909 22.1538C86.4697 22.3921 86.7179 22.5907 87.0357 22.7496C87.3534 22.9085 87.7507 22.9879 88.2273 22.9879H89.3296V25.5797H88.2273ZM100.502 25.5797V15.8977C100.502 15.143 100.303 14.4876 99.9057 13.9315C99.5085 13.3556 98.9127 13.0676 98.1183 13.0676C97.3239 13.0676 96.7281 13.3556 96.3309 13.9315C95.9336 14.4876 95.735 15.143 95.735 15.8977V25.5797H92.9049V3.68353L95.735 3.23667V7.70528C95.735 8.34081 95.7052 8.97635 95.6457 9.61189C95.6059 10.2276 95.5464 10.8532 95.4669 11.4887C95.8244 11.1511 96.2415 10.883 96.7181 10.6844C97.1948 10.4857 97.7409 10.3864 98.3566 10.3864C99.1312 10.3864 99.8164 10.5354 100.412 10.8333C101.028 11.1312 101.554 11.5384 101.991 12.0547C102.428 12.5512 102.756 13.1371 102.974 13.8124C103.213 14.4678 103.332 15.1629 103.332 15.8977V25.5797H100.502Z" fill="url(#paint0_linear_267_550)"/>
<defs>
<linearGradient id="paint0_linear_267_550" x1="106" y1="36.5797" x2="84.076" y2="-27.9744" gradientUnits="userSpaceOnUse">
<stop stop-color="#2473DB"/>
<stop offset="1" stop-color="#76E1B1"/>
</linearGradient>
</defs>
</svg>
