<svg width="98" height="37" viewBox="0 0 98 37" fill="none" xmlns="http://www.w3.org/2000/svg">
<path d="M14.5081 25.7899V16.8526C14.5081 15.4823 14.518 14.1119 14.5379 12.7415C14.5776 11.3711 14.6173 10.0008 14.657 8.6304H14.5975C14.379 9.56384 14.1804 10.4874 14.0016 11.4009C13.8229 12.3145 13.6144 13.238 13.376 14.1715L11.1417 22.8704H8.3414L6.1071 14.1715C5.86877 13.238 5.66024 12.3145 5.48149 11.4009C5.30275 10.4874 5.10414 9.56384 4.88568 8.6304H4.8261C4.86582 10.0008 4.89561 11.3711 4.91547 12.7415C4.95519 14.1119 4.97505 15.4823 4.97505 16.8526V25.7899H1.99598V4.93635H6.46459L8.84784 14.1715C9.02659 14.8666 9.17554 15.5716 9.2947 16.2866C9.41387 17.0016 9.55289 17.7166 9.71177 18.4315H9.77136C9.91038 17.7166 10.0295 17.0016 10.1288 16.2866C10.248 15.5716 10.397 14.8666 10.5757 14.1715L13.0185 4.93635H17.4872V25.7899H14.5081ZM29.9336 25.7899L29.1591 24.1812C28.8413 24.7571 28.3845 25.2238 27.7887 25.5813C27.2127 25.9189 26.468 26.0878 25.5544 26.0878C24.1244 26.0878 22.9825 25.6806 22.1285 24.8663C21.2745 24.0322 20.8475 22.9597 20.8475 21.6489C20.8475 20.934 20.9765 20.3282 21.2347 19.8317C21.4929 19.3153 21.8504 18.8784 22.3072 18.5209C22.764 18.1634 23.3002 17.8854 23.9159 17.6868C24.5316 17.4683 25.1969 17.3094 25.9119 17.2101L28.4441 16.8228V15.661C28.4441 15.0255 28.2554 14.4694 27.8781 13.9927C27.5206 13.5161 26.9843 13.2778 26.2694 13.2778C25.5742 13.2778 25.038 13.5161 24.6607 13.9927C24.3032 14.4694 24.1244 15.0255 24.1244 15.661H21.2943C21.2943 14.9858 21.4035 14.3403 21.622 13.7246C21.8405 13.1089 22.1582 12.5727 22.5753 12.1159C22.9924 11.6393 23.5088 11.2718 24.1244 11.0137C24.7401 10.7356 25.4551 10.5966 26.2694 10.5966C27.0836 10.5966 27.7986 10.7356 28.4143 11.0137C29.0498 11.2718 29.5761 11.6393 29.9932 12.1159C30.4103 12.5727 30.728 13.1089 30.9465 13.7246C31.165 14.3403 31.2742 14.9858 31.2742 15.661V25.7899H29.9336ZM28.4441 19.4444L26.3289 19.7721C25.5742 19.8913 24.9387 20.0998 24.4223 20.3977C23.9258 20.6956 23.6776 21.1425 23.6776 21.7383C23.6776 22.215 23.8563 22.6122 24.2138 22.9299C24.5713 23.2477 25.1075 23.4066 25.8225 23.4066C26.6169 23.4066 27.2525 23.208 27.7291 22.8108C28.2058 22.4136 28.4441 21.9171 28.4441 21.3212V19.4444Z" fill="#2473DB"/>
<path d="M41.9586 15.661C41.9586 14.9659 41.76 14.3999 41.3628 13.9629C40.9656 13.5061 40.34 13.2778 39.486 13.2778C38.7909 13.2778 38.2348 13.4366 37.8177 13.7544C37.4006 14.0722 37.1921 14.4992 37.1921 15.0354C37.1921 15.5915 37.4403 15.9887 37.9369 16.227C38.4532 16.4654 39.198 16.7235 40.1712 17.0016C40.8464 17.2002 41.4621 17.3988 42.0182 17.5974C42.5941 17.796 43.0906 18.0542 43.5077 18.372C43.9248 18.6897 44.2525 19.0969 44.4908 19.5934C44.7291 20.07 44.8483 20.6758 44.8483 21.4106C44.8483 22.9002 44.3816 24.0521 43.4481 24.8663C42.5147 25.6806 41.2635 26.0878 39.6945 26.0878C38.7611 26.0878 37.9567 25.9487 37.2815 25.6707C36.6062 25.3926 36.0402 25.0252 35.5834 24.5684C35.1465 24.0918 34.8188 23.5556 34.6003 22.9597C34.4017 22.3441 34.3024 21.6986 34.3024 21.0233H37.1325C37.1325 21.7185 37.3311 22.2944 37.7283 22.7512C38.1255 23.1881 38.771 23.4066 39.6647 23.4066C40.3797 23.4066 40.9457 23.2477 41.3628 22.9299C41.7997 22.6122 42.0182 22.1554 42.0182 21.5596C42.0182 20.9836 41.7699 20.5765 41.2734 20.3382C40.7769 20.08 39.9924 19.8019 38.9199 19.504C38.3639 19.3451 37.8078 19.1763 37.2517 18.9976C36.7154 18.8188 36.2289 18.5706 35.7919 18.2528C35.3749 17.935 35.0273 17.5378 34.7492 17.0612C34.4911 16.5647 34.362 15.9391 34.362 15.1844C34.362 13.7941 34.8088 12.6819 35.7025 11.8478C36.6161 11.0137 37.8773 10.5966 39.486 10.5966C40.3996 10.5966 41.184 10.7356 41.8394 11.0137C42.5147 11.2917 43.0708 11.6691 43.5077 12.1457C43.9446 12.6025 44.2624 13.1387 44.461 13.7544C44.6795 14.3502 44.7887 14.9858 44.7887 15.661H41.9586ZM56.4695 25.7899L55.6949 24.1812C55.3771 24.7571 54.9204 25.2238 54.3245 25.5813C53.7486 25.9189 53.0038 26.0878 52.0902 26.0878C50.6603 26.0878 49.5183 25.6806 48.6643 24.8663C47.8103 24.0322 47.3833 22.9597 47.3833 21.6489C47.3833 20.934 47.5124 20.3282 47.7706 19.8317C48.0288 19.3153 48.3863 18.8784 48.843 18.5209C49.2998 18.1634 49.8361 17.8854 50.4517 17.6868C51.0674 17.4683 51.7327 17.3094 52.4477 17.2101L54.9799 16.8228V15.661C54.9799 15.0255 54.7913 14.4694 54.4139 13.9927C54.0564 13.5161 53.5202 13.2778 52.8052 13.2778C52.1101 13.2778 51.5739 13.5161 51.1965 13.9927C50.839 14.4694 50.6603 15.0255 50.6603 15.661H47.8302C47.8302 14.9858 47.9394 14.3403 48.1579 13.7246C48.3763 13.1089 48.6941 12.5727 49.1112 12.1159C49.5282 11.6393 50.0446 11.2718 50.6603 11.0137C51.276 10.7356 51.9909 10.5966 52.8052 10.5966C53.6195 10.5966 54.3345 10.7356 54.9501 11.0137C55.5857 11.2718 56.112 11.6393 56.5291 12.1159C56.9461 12.5727 57.2639 13.1089 57.4824 13.7246C57.7008 14.3403 57.8101 14.9858 57.8101 15.661V25.7899H56.4695ZM54.9799 19.4444L52.8648 19.7721C52.1101 19.8913 51.4746 20.0998 50.9582 20.3977C50.4617 20.6956 50.2134 21.1425 50.2134 21.7383C50.2134 22.215 50.3922 22.6122 50.7497 22.9299C51.1071 23.2477 51.6434 23.4066 52.3584 23.4066C53.1528 23.4066 53.7883 23.208 54.265 22.8108C54.7416 22.4136 54.9799 21.9171 54.9799 21.3212V19.4444ZM69.1201 25.7899V16.1079C69.1201 15.3532 68.9215 14.6978 68.5242 14.1417C68.127 13.5657 67.5312 13.2778 66.7368 13.2778C65.9424 13.2778 65.3466 13.5657 64.9494 14.1417C64.5521 14.6978 64.3535 15.3532 64.3535 16.1079V25.7899H61.5234V10.8945H62.864L63.5492 12.3542C63.9067 11.818 64.3635 11.391 64.9196 11.0732C65.4757 10.7555 66.1608 10.5966 66.9751 10.5966C67.7497 10.5966 68.4349 10.7455 69.0307 11.0434C69.6464 11.3414 70.1727 11.7485 70.6096 12.2649C71.0465 12.7614 71.3742 13.3473 71.5927 14.0225C71.831 14.6779 71.9502 15.373 71.9502 16.1079V25.7899H69.1201ZM81.5779 25.7899C80.7041 25.7899 79.9295 25.6508 79.2543 25.3728C78.5989 25.0947 78.0527 24.7174 77.6158 24.2407C77.1788 23.7641 76.8511 23.1981 76.6327 22.5427C76.4142 21.8873 76.305 21.1822 76.305 20.4275V13.6055H74.2196V11.4903C75.2722 11.4903 76.0269 11.2619 76.4837 10.8051C76.9604 10.3285 77.1987 9.56384 77.1987 8.51124V7.88563L79.1351 7.61752V11.0434H83.276V13.6055H79.1351V20.4275C79.1351 20.785 79.1748 21.1326 79.2543 21.4702C79.3337 21.8078 79.4628 22.1057 79.6415 22.3639C79.8203 22.6022 80.0685 22.8009 80.3863 22.9597C80.7041 23.1186 81.1013 23.1981 81.5779 23.1981H82.6802V25.7899H81.5779ZM88.7601 19.4146V20.4275C88.7601 21.2418 88.9587 21.9469 89.3559 22.5427C89.7729 23.1186 90.3886 23.4066 91.2029 23.4066C91.9576 23.4066 92.5336 23.1782 92.9308 22.7214C93.328 22.2448 93.5266 21.6787 93.5266 21.0233H96.3567C96.3567 21.7185 96.2375 22.3739 95.9992 22.9895C95.7807 23.5853 95.453 24.1216 95.0161 24.5982C94.5792 25.055 94.0429 25.4224 93.4074 25.7005C92.7719 25.9587 92.037 26.0878 91.2029 26.0878C90.329 26.0878 89.5545 25.9388 88.8792 25.6409C88.2238 25.3231 87.6777 24.9061 87.2407 24.3897C86.8038 23.8733 86.4761 23.2775 86.2576 22.6022C86.0392 21.9071 85.9299 21.1822 85.9299 20.4275V16.2568C85.9299 15.5021 86.0392 14.7871 86.2576 14.1119C86.4761 13.4168 86.8038 12.811 87.2407 12.2947C87.6777 11.7783 88.2238 11.3711 88.8792 11.0732C89.5545 10.7555 90.329 10.5966 91.2029 10.5966C92.037 10.5966 92.7719 10.7356 93.4074 11.0137C94.0429 11.2718 94.5792 11.6393 95.0161 12.1159C95.453 12.5727 95.7807 13.1089 95.9992 13.7246C96.2375 14.3403 96.3567 14.9858 96.3567 15.661V19.4146H88.7601ZM93.5266 15.661C93.5266 15.0056 93.328 14.4495 92.9308 13.9927C92.5336 13.5161 91.9576 13.2778 91.2029 13.2778C90.7858 13.2778 90.4283 13.3572 90.1304 13.5161C89.8325 13.675 89.5743 13.8934 89.3559 14.1715C89.1573 14.4297 89.0083 14.7474 88.909 15.1248C88.8097 15.4823 88.7601 15.8596 88.7601 16.2568V16.8526H93.5266V15.661ZM89.2963 8.9581L91.9775 4.93635H95.2544L91.6795 8.9581H89.2963Z" fill="url(#paint0_linear_267_548)"/>
<defs>
<linearGradient id="paint0_linear_267_548" x1="98" y1="36.7899" x2="74.6958" y2="-26.6494" gradientUnits="userSpaceOnUse">
<stop stop-color="#2473DB"/>
<stop offset="1" stop-color="#76E1B1"/>
</linearGradient>
</defs>
</svg>
