<svg width="196" height="37" viewBox="0 0 196 37" fill="none" xmlns="http://www.w3.org/2000/svg">
<path d="M14.5081 25.3696V16.4324C14.5081 15.062 14.518 13.6916 14.5379 12.3212C14.5776 10.9509 14.6173 9.58049 14.657 8.21011H14.5975C14.379 9.14355 14.1804 10.0671 14.0016 10.9806C13.8229 11.8942 13.6144 12.8177 13.376 13.7512L11.1417 22.4501H8.3414L6.1071 13.7512C5.86877 12.8177 5.66024 11.8942 5.48149 10.9806C5.30275 10.0671 5.10414 9.14355 4.88568 8.21011H4.8261C4.86582 9.58049 4.89561 10.9509 4.91547 12.3212C4.95519 13.6916 4.97505 15.062 4.97505 16.4324V25.3696H1.99598V4.51606H6.46459L8.84784 13.7512C9.02659 14.4463 9.17554 15.1514 9.2947 15.8663C9.41387 16.5813 9.55289 17.2963 9.71177 18.0113H9.77136C9.91038 17.2963 10.0295 16.5813 10.1288 15.8663C10.248 15.1514 10.397 14.4463 10.5757 13.7512L13.0185 4.51606H17.4872V25.3696H14.5081ZM24.0351 18.9944V20.0072C24.0351 20.8215 24.2337 21.5266 24.6309 22.1224C25.0479 22.6983 25.6636 22.9863 26.4779 22.9863C27.2326 22.9863 27.8086 22.7579 28.2058 22.3011C28.603 21.8245 28.8016 21.2584 28.8016 20.6031H31.6317C31.6317 21.2982 31.5125 21.9536 31.2742 22.5692C31.0557 23.1651 30.728 23.7013 30.2911 24.1779C29.8542 24.6347 29.3179 25.0021 28.6824 25.2802C28.0469 25.5384 27.312 25.6675 26.4779 25.6675C25.604 25.6675 24.8295 25.5185 24.1542 25.2206C23.4988 24.9028 22.9527 24.4858 22.5157 23.9694C22.0788 23.453 21.7511 22.8572 21.5326 22.182C21.3142 21.4868 21.2049 20.7619 21.2049 20.0072V15.8365C21.2049 15.0818 21.3142 14.3669 21.5326 13.6916C21.7511 12.9965 22.0788 12.3907 22.5157 11.8744C22.9527 11.358 23.4988 10.9509 24.1542 10.653C24.8295 10.3352 25.604 10.1763 26.4779 10.1763C27.312 10.1763 28.0469 10.3153 28.6824 10.5934C29.3179 10.8516 29.8542 11.219 30.2911 11.6956C30.728 12.1524 31.0557 12.6887 31.2742 13.3043C31.5125 13.92 31.6317 14.5655 31.6317 15.2407V18.9944H24.0351ZM28.8016 15.2407C28.8016 14.5853 28.603 14.0292 28.2058 13.5724C27.8086 13.0958 27.2326 12.8575 26.4779 12.8575C26.0608 12.8575 25.7033 12.9369 25.4054 13.0958C25.1075 13.2547 24.8493 13.4731 24.6309 13.7512C24.4323 14.0094 24.2833 14.3271 24.184 14.7045C24.0847 15.062 24.0351 15.4393 24.0351 15.8365V16.4324H28.8016V15.2407ZM35.1039 25.3696V10.4742H37.9341V25.3696H35.1039ZM37.9341 7.79304H35.1039V5.11188H37.9341V7.79304ZM49.35 25.3696V15.6876C49.35 14.9329 49.1514 14.2775 48.7541 13.7214C48.3569 13.1454 47.7611 12.8575 46.9667 12.8575C46.1723 12.8575 45.5765 13.1454 45.1793 13.7214C44.782 14.2775 44.5834 14.9329 44.5834 15.6876V25.3696H41.7533V10.4742H43.0939L43.7791 11.934C44.1366 11.3977 44.5934 10.9707 45.1495 10.653C45.7056 10.3352 46.3907 10.1763 47.205 10.1763C47.9796 10.1763 48.6648 10.3253 49.2606 10.6232C49.8763 10.9211 50.4026 11.3282 50.8395 11.8446C51.2764 12.3411 51.6041 12.927 51.8226 13.6022C52.0609 14.2576 52.1801 14.9527 52.1801 15.6876V25.3696H49.35ZM58.4713 18.9944V20.0072C58.4713 20.8215 58.6699 21.5266 59.0671 22.1224C59.4842 22.6983 60.0998 22.9863 60.9141 22.9863C61.6688 22.9863 62.2448 22.7579 62.642 22.3011C63.0392 21.8245 63.2378 21.2584 63.2378 20.6031H66.0679C66.0679 21.2982 65.9487 21.9536 65.7104 22.5692C65.492 23.1651 65.1643 23.7013 64.7273 24.1779C64.2904 24.6347 63.7542 25.0021 63.1186 25.2802C62.4831 25.5384 61.7483 25.6675 60.9141 25.6675C60.0402 25.6675 59.2657 25.5185 58.5904 25.2206C57.935 24.9028 57.3889 24.4858 56.9519 23.9694C56.515 23.453 56.1873 22.8572 55.9689 22.182C55.7504 21.4868 55.6412 20.7619 55.6412 20.0072V15.8365C55.6412 15.0818 55.7504 14.3669 55.9689 13.6916C56.1873 12.9965 56.515 12.3907 56.9519 11.8744C57.3889 11.358 57.935 10.9509 58.5904 10.653C59.2657 10.3352 60.0402 10.1763 60.9141 10.1763C61.7483 10.1763 62.4831 10.3153 63.1186 10.5934C63.7542 10.8516 64.2904 11.219 64.7273 11.6956C65.1643 12.1524 65.492 12.6887 65.7104 13.3043C65.9487 13.92 66.0679 14.5655 66.0679 15.2407V18.9944H58.4713ZM63.2378 15.2407C63.2378 14.5853 63.0392 14.0292 62.642 13.5724C62.2448 13.0958 61.6688 12.8575 60.9141 12.8575C60.497 12.8575 60.1396 12.9369 59.8416 13.0958C59.5437 13.2547 59.2856 13.4731 59.0671 13.7512C58.8685 14.0094 58.7195 14.3271 58.6202 14.7045C58.5209 15.062 58.4713 15.4393 58.4713 15.8365V16.4324H63.2378V15.2407Z" fill="#2473DB"/>
<path d="M81.1585 8.59739C81.1585 9.51097 80.95 10.2657 80.5329 10.8615C80.1357 11.4374 79.6094 11.8843 78.954 12.2021C79.6293 13.1554 79.9669 14.2676 79.9669 15.5386C79.9669 16.2536 79.8477 16.9388 79.6094 17.5942C79.391 18.2496 79.0533 18.8255 78.5965 19.3221C78.1596 19.7987 77.6035 20.186 76.9283 20.4839C76.253 20.7619 75.4784 20.901 74.6046 20.901C73.8499 20.901 73.2044 20.8017 72.6682 20.6031C72.4497 20.7619 72.3107 20.9407 72.2511 21.1393C72.2114 21.318 72.1915 21.4571 72.1915 21.5564C72.1915 22.0727 72.3206 22.4302 72.5788 22.6288C72.837 22.8274 73.115 22.9466 73.4129 22.9863C73.7903 23.026 74.2272 23.0757 74.7237 23.1353C75.2203 23.175 75.7366 23.2544 76.2729 23.3736C76.8091 23.4729 77.3255 23.6218 77.822 23.8205C78.3383 24.0191 78.7951 24.2971 79.1923 24.6546C79.6094 24.9922 79.9371 25.4192 80.1754 25.9356C80.4336 26.4718 80.5627 27.1074 80.5627 27.8422C80.5627 28.5572 80.4336 29.2324 80.1754 29.868C79.9371 30.5035 79.5796 31.0596 79.103 31.5362C78.6263 32.0129 78.0206 32.3902 77.2857 32.6683C76.5708 32.9662 75.7366 33.1152 74.7833 33.1152C73.83 33.1152 72.9859 32.9662 72.2511 32.6683C71.5163 32.3902 70.9006 32.0129 70.4041 31.5362C69.9274 31.0596 69.56 30.5134 69.3018 29.8978C69.0635 29.3019 68.9443 28.6863 68.9443 28.0507C68.9443 26.7201 69.5402 25.4987 70.7318 24.3865C70.414 24.0687 70.1558 23.6814 69.9572 23.2246C69.7586 22.7678 69.6593 22.2217 69.6593 21.5861C69.6593 21.2684 69.709 20.891 69.8083 20.4541C69.9076 19.9973 70.126 19.5703 70.4637 19.1731C70.0665 18.6766 69.7586 18.1205 69.5402 17.5048C69.3415 16.8891 69.2422 16.2337 69.2422 15.5386C69.2422 14.8237 69.3515 14.1385 69.5699 13.4831C69.8083 12.8277 70.1459 12.2617 70.5828 11.785C71.0396 11.2885 71.6056 10.9012 72.2809 10.6232C72.9562 10.3253 73.7307 10.1763 74.6046 10.1763C75.1805 10.1763 75.6969 10.2458 76.1537 10.3848C76.6303 10.504 77.0673 10.6728 77.4645 10.8913C77.8021 10.7324 78.0802 10.4841 78.2986 10.1465C78.5171 9.78902 78.6263 9.27265 78.6263 8.59739H81.1585ZM73.0852 25.5185C72.7476 25.876 72.4398 26.2732 72.1617 26.7102C71.9036 27.1471 71.7745 27.5939 71.7745 28.0507C71.7745 28.6664 72.0227 29.2126 72.5192 29.6892C73.0356 30.1857 73.7804 30.434 74.7535 30.434C75.7466 30.434 76.4913 30.1758 76.9878 29.6594C77.4843 29.1629 77.7326 28.577 77.7326 27.9018C77.7326 27.445 77.6134 27.0776 77.3751 26.7995C77.1566 26.5413 76.8389 26.3229 76.4218 26.1441C76.0047 25.9852 75.5182 25.8561 74.9621 25.7568C74.406 25.6774 73.8002 25.598 73.1448 25.5185H73.0852ZM74.6046 18.2198C75.4387 18.2198 76.0643 17.9616 76.4814 17.4452C76.9183 16.909 77.1368 16.2735 77.1368 15.5386C77.1368 14.8038 76.9183 14.1782 76.4814 13.6618C76.0643 13.1256 75.4387 12.8575 74.6046 12.8575C73.7704 12.8575 73.1349 13.1256 72.698 13.6618C72.2809 14.1782 72.0724 14.8038 72.0724 15.5386C72.0724 16.2735 72.2809 16.909 72.698 17.4452C73.1349 17.9616 73.7704 18.2198 74.6046 18.2198ZM86.2581 18.9944V20.0072C86.2581 20.8215 86.4567 21.5266 86.8539 22.1224C87.271 22.6983 87.8867 22.9863 88.7009 22.9863C89.4556 22.9863 90.0316 22.7579 90.4288 22.3011C90.826 21.8245 91.0246 21.2584 91.0246 20.6031H93.8547C93.8547 21.2982 93.7356 21.9536 93.4972 22.5692C93.2788 23.1651 92.9511 23.7013 92.5141 24.1779C92.0772 24.6347 91.541 25.0021 90.9055 25.2802C90.2699 25.5384 89.5351 25.6675 88.7009 25.6675C87.8271 25.6675 87.0525 25.5185 86.3773 25.2206C85.7219 24.9028 85.1757 24.4858 84.7388 23.9694C84.3018 23.453 83.9741 22.8572 83.7557 22.182C83.5372 21.4868 83.428 20.7619 83.428 20.0072V15.8365C83.428 15.0818 83.5372 14.3669 83.7557 13.6916C83.9741 12.9965 84.3018 12.3907 84.7388 11.8744C85.1757 11.358 85.7219 10.9509 86.3773 10.653C87.0525 10.3352 87.8271 10.1763 88.7009 10.1763C89.5351 10.1763 90.2699 10.3153 90.9055 10.5934C91.541 10.8516 92.0772 11.219 92.5141 11.6956C92.9511 12.1524 93.2788 12.6887 93.4972 13.3043C93.7356 13.92 93.8547 14.5655 93.8547 15.2407V18.9944H86.2581ZM91.0246 15.2407C91.0246 14.5853 90.826 14.0292 90.4288 13.5724C90.0316 13.0958 89.4556 12.8575 88.7009 12.8575C88.2839 12.8575 87.9264 12.9369 87.6285 13.0958C87.3306 13.2547 87.0724 13.4731 86.8539 13.7512C86.6553 14.0094 86.5064 14.3271 86.4071 14.7045C86.3077 15.062 86.2581 15.4393 86.2581 15.8365V16.4324H91.0246V15.2407ZM104.298 15.2407C104.298 14.5456 104.099 13.9796 103.702 13.5427C103.305 13.0859 102.679 12.8575 101.825 12.8575C101.13 12.8575 100.574 13.0163 100.157 13.3341C99.74 13.6519 99.5315 14.0789 99.5315 14.6151C99.5315 15.1712 99.7797 15.5684 100.276 15.8067C100.793 16.0451 101.537 16.3033 102.511 16.5813C103.186 16.7799 103.801 16.9785 104.358 17.1771C104.934 17.3757 105.43 17.6339 105.847 17.9517C106.264 18.2694 106.592 18.6766 106.83 19.1731C107.069 19.6497 107.188 20.2555 107.188 20.9903C107.188 22.4799 106.721 23.6318 105.788 24.4461C104.854 25.2603 103.603 25.6675 102.034 25.6675C101.1 25.6675 100.296 25.5285 99.6209 25.2504C98.9456 24.9724 98.3796 24.6049 97.9228 24.1481C97.4859 23.6715 97.1582 23.1353 96.9397 22.5394C96.7411 21.9238 96.6418 21.2783 96.6418 20.6031H99.4719C99.4719 21.2982 99.6705 21.8741 100.068 22.3309C100.465 22.7678 101.11 22.9863 102.004 22.9863C102.719 22.9863 103.285 22.8274 103.702 22.5097C104.139 22.1919 104.358 21.7351 104.358 21.1393C104.358 20.5633 104.109 20.1562 103.613 19.9179C103.116 19.6597 102.332 19.3816 101.259 19.0837C100.703 18.9248 100.147 18.756 99.5911 18.5773C99.0548 18.3985 98.5683 18.1503 98.1313 17.8325C97.7143 17.5147 97.3667 17.1175 97.0887 16.6409C96.8305 16.1444 96.7014 15.5188 96.7014 14.7641C96.7014 13.3738 97.1482 12.2617 98.042 11.4275C98.9555 10.5934 100.217 10.1763 101.825 10.1763C102.739 10.1763 103.523 10.3153 104.179 10.5934C104.854 10.8714 105.41 11.2488 105.847 11.7254C106.284 12.1822 106.602 12.7184 106.8 13.3341C107.019 13.9299 107.128 14.5655 107.128 15.2407H104.298ZM119.286 25.3696L118.6 23.9098C118.243 24.4461 117.776 24.8731 117.2 25.1908C116.644 25.5086 115.969 25.6675 115.174 25.6675C114.4 25.6675 113.705 25.5185 113.089 25.2206C112.493 24.9227 111.977 24.5255 111.54 24.029C111.103 23.5126 110.765 22.9267 110.527 22.2713C110.309 21.5961 110.199 20.891 110.199 20.1562V10.4742H113.029V20.1562C113.029 20.9109 113.228 21.5762 113.625 22.1522C114.023 22.7083 114.618 22.9863 115.413 22.9863C116.207 22.9863 116.803 22.7083 117.2 22.1522C117.597 21.5762 117.796 20.9109 117.796 20.1562V10.4742H120.626V25.3696H119.286ZM132.041 25.3696V15.6876C132.041 14.9329 131.843 14.2775 131.446 13.7214C131.048 13.1454 130.452 12.8575 129.658 12.8575C128.864 12.8575 128.268 13.1454 127.871 13.7214C127.473 14.2775 127.275 14.9329 127.275 15.6876V25.3696H124.445V10.4742H125.785L126.47 11.934C126.828 11.3977 127.285 10.9707 127.841 10.653C128.397 10.3352 129.082 10.1763 129.896 10.1763C130.671 10.1763 131.356 10.3253 131.952 10.6232C132.568 10.9211 133.094 11.3282 133.531 11.8446C133.968 12.3411 134.295 12.927 134.514 13.6022C134.752 14.2576 134.871 14.9527 134.871 15.6876V25.3696H132.041ZM147.717 25.3696L147.031 23.9396C146.654 24.4758 146.177 24.9028 145.601 25.2206C145.026 25.5185 144.32 25.6675 143.486 25.6675C142.692 25.6675 141.977 25.5285 141.341 25.2504C140.706 24.9525 140.16 24.5652 139.703 24.0886C139.266 23.5921 138.928 23.0161 138.69 22.3607C138.452 21.7053 138.333 21.0201 138.333 20.3051V15.5386C138.333 14.8237 138.452 14.1484 138.69 13.5129C138.928 12.8575 139.266 12.2815 139.703 11.785C140.16 11.2885 140.706 10.9012 141.341 10.6232C141.977 10.3253 142.692 10.1763 143.486 10.1763C144.122 10.1763 144.688 10.2756 145.184 10.4742C145.681 10.6728 146.108 10.9409 146.465 11.2786C146.406 10.643 146.346 10.0174 146.287 9.40174C146.247 8.76621 146.227 8.13067 146.227 7.49514V3.47339L149.057 3.02653V25.3696H147.717ZM146.227 15.6876C146.227 14.9329 146.009 14.2775 145.572 13.7214C145.155 13.1454 144.529 12.8575 143.695 12.8575C142.861 12.8575 142.225 13.1454 141.788 13.7214C141.371 14.2775 141.163 14.9329 141.163 15.6876V20.1562C141.163 20.9109 141.371 21.5762 141.788 22.1522C142.225 22.7083 142.861 22.9863 143.695 22.9863C144.529 22.9863 145.155 22.7083 145.572 22.1522C146.009 21.5762 146.227 20.9109 146.227 20.1562V15.6876ZM160.468 25.3696V15.6876C160.468 14.9329 160.27 14.2775 159.872 13.7214C159.475 13.1454 158.879 12.8575 158.085 12.8575C157.291 12.8575 156.695 13.1454 156.297 13.7214C155.9 14.2775 155.702 14.9329 155.702 15.6876V25.3696H152.872V3.47339L155.702 3.02653V7.49514C155.702 8.13067 155.672 8.76621 155.612 9.40174C155.573 10.0174 155.513 10.643 155.434 11.2786C155.791 10.9409 156.208 10.6728 156.685 10.4742C157.161 10.2756 157.708 10.1763 158.323 10.1763C159.098 10.1763 159.783 10.3253 160.379 10.6232C160.994 10.9211 161.521 11.3282 161.958 11.8446C162.395 12.3411 162.722 12.927 162.941 13.6022C163.179 14.2576 163.298 14.9527 163.298 15.6876V25.3696H160.468ZM169.589 18.9944V20.0072C169.589 20.8215 169.788 21.5266 170.185 22.1224C170.602 22.6983 171.218 22.9863 172.032 22.9863C172.787 22.9863 173.363 22.7579 173.76 22.3011C174.157 21.8245 174.356 21.2584 174.356 20.6031H177.186C177.186 21.2982 177.067 21.9536 176.829 22.5692C176.61 23.1651 176.282 23.7013 175.846 24.1779C175.409 24.6347 174.872 25.0021 174.237 25.2802C173.601 25.5384 172.866 25.6675 172.032 25.6675C171.158 25.6675 170.384 25.5185 169.709 25.2206C169.053 24.9028 168.507 24.4858 168.07 23.9694C167.633 23.453 167.306 22.8572 167.087 22.182C166.869 21.4868 166.759 20.7619 166.759 20.0072V15.8365C166.759 15.0818 166.869 14.3669 167.087 13.6916C167.306 12.9965 167.633 12.3907 168.07 11.8744C168.507 11.358 169.053 10.9509 169.709 10.653C170.384 10.3352 171.158 10.1763 172.032 10.1763C172.866 10.1763 173.601 10.3153 174.237 10.5934C174.872 10.8516 175.409 11.219 175.846 11.6956C176.282 12.1524 176.61 12.6887 176.829 13.3043C177.067 13.92 177.186 14.5655 177.186 15.2407V18.9944H169.589ZM174.356 15.2407C174.356 14.5853 174.157 14.0292 173.76 13.5724C173.363 13.0958 172.787 12.8575 172.032 12.8575C171.615 12.8575 171.258 12.9369 170.96 13.0958C170.662 13.2547 170.404 13.4731 170.185 13.7512C169.987 14.0094 169.838 14.3271 169.738 14.7045C169.639 15.062 169.589 15.4393 169.589 15.8365V16.4324H174.356V15.2407ZM180.658 25.3696V10.4742H183.488V25.3696H180.658ZM183.488 7.79304H180.658V5.11188H183.488V7.79304ZM193.236 25.3696C192.362 25.3696 191.588 25.2305 190.912 24.9525C190.257 24.6745 189.711 24.2971 189.274 23.8205C188.837 23.3438 188.509 22.7778 188.291 22.1224C188.072 21.467 187.963 20.7619 187.963 20.0072V13.1852H185.878V11.07C186.93 11.07 187.685 10.8416 188.142 10.3848C188.619 9.90818 188.857 9.14356 188.857 8.09095V7.46534L190.793 7.19723V10.6232H194.934V13.1852H190.793V20.0072C190.793 20.3647 190.833 20.7123 190.912 21.0499C190.992 21.3875 191.121 21.6854 191.3 21.9436C191.478 22.182 191.727 22.3806 192.044 22.5394C192.362 22.6983 192.759 22.7778 193.236 22.7778H194.338V25.3696H193.236Z" fill="url(#paint0_linear_267_552)"/>
<defs>
<linearGradient id="paint0_linear_267_552" x1="196" y1="36.3696" x2="183.207" y2="-33.2807" gradientUnits="userSpaceOnUse">
<stop stop-color="#2473DB"/>
<stop offset="1" stop-color="#76E1B1"/>
</linearGradient>
</defs>
</svg>
